{"title":"Doo (2011) Tamil 1CD TC Rip XviD MP3-=MTR=-","uid":6600425,"size":745791644,"categoryP":"video","categoryS":"movies","magnet":"?xt=urn:btih:70908545096b9c4d02a04166cf53c01d47a1dedd&amp;dn=Doo+%282011%29+Tamil+1CD+TC+Rip+XviD+MP3-%3DMTR%3D-&amp;tr=udp%3A%2F%2Ftracker.openbittorrent.com%3A80&amp;tr=udp%3A%2F%2Fopen.demonii.com%3A1337&amp;tr=udp%3A%2F%2Ftracker.coppersurfer.tk%3A6969&amp;tr=udp%3A%2F%2Fexodus.desync.com%3A6969","seeders":0,"leechers":1,"uploader":"HDvideos","files":-1,"time":1313180799,"description":"Doo (2011) Tamil 1CD TC Rip XviD MP3-=MTR=-\n\nCheck out MY latest Uploads:\n &lt;a href=&quot;\nhttp://thepiratebay.se/user/HDvideos/0/7&quot; rel=&quot;nofollow&quot; target=&quot;_NEW&quot;&gt;\nhttp://thepiratebay.se/user/HDvideos/0/7&lt;/a&gt;\n\nStay updated with us....\n\nSeed after downloading....\n\nEnjoY with HDvideos..\n\nSay thanks if u like my posts\n\nGive ur valuable feedbacks\n\nQuality Uploads from HDvideos\n\n-=MT=-Uploader-=HDvideos=-\n\nRecommended Player:VLC Player\n\nVideo\nID                               : 0\nFormat                           : MPEG-4 Visual\nCodec ID                         : XVID\nCodec ID/Hint                    : XviD\nDuration                         : 1h 36mn\nBit rate                         : 932 Kbps\nWidth                            : 608 pixels\nHeight                           : 256 pixels\nDisplay aspect ratio             : 2.35:1\nFrame rate                       : 29.970 fps\nColor space                      : YUV\nChroma subsampling               : 4:2:0\nBit depth                        : 8 bits\nScan type                        : Progressive\nCompression mode                 : Lossy\nBits/(Pixel*Frame)               : 0.200\nStream size                      : 645 MiB (91%)\nWriting library                  : XviD 1.2.1 (UTC 2008-12-04)\n\nAudio\nID                               : 1\nFormat                           : MPEG Audio\nFormat version                   : Version 1\nFormat profile                   : Layer 3\nCodec ID                         : 55\nCodec ID/Hint                    : MP3\nDuration                         : 1h 36mn\nBit rate mode                    : Variable\nBit rate                         : 82.6 Kbps\nMinimum bit rate                 : 32.0 Kbps\nChannel(s)                       : 1 channel\nSampling rate                    : 48.0 KHz\nCompression mode                 : Lossy\nStream size                      : 57.1 MiB (8%)\nAlignment                        : Aligned on interleaves\nInterleave, duration             : 24 ms (0.72 video frame)\nInterleave, preload duration     : 165 ms\nTitle                            : doo T80 2_0ch 192Kbps DELAY 0ms\nWriting library                  : LAME3.98\n\n","torrent":{"xt":"urn:btih:70908545096b9c4d02a04166cf53c01d47a1dedd","amp;dn":"Doo+%282011%29+Tamil+1CD+TC+Rip+XviD+MP3-%3DMTR%3D-","amp;tr":["udp%3A%2F%2Ftracker.openbittorrent.com%3A80","udp%3A%2F%2Fopen.demonii.com%3A1337","udp%3A%2F%2Ftracker.coppersurfer.tk%3A6969","udp%3A%2F%2Fexodus.desync.com%3A6969"],"infoHash":"70908545096b9c4d02a04166cf53c01d47a1dedd","infoHashBuffer":{"type":"Buffer","data":[112,144,133,69,9,107,156,77,2,160,65,102,207,83,192,29,71,161,222,221]},"announce":[],"urlList":[]}}